<svg enable-background="new 0 0 145 145" viewBox="0 0 145 145" xmlns="http://www.w3.org/2000/svg"><path d="m143.2 71.8c0 37.7-30.6 68.3-68.3 68.3s-68.3-30.6-68.4-68.3 30.6-68.4 68.3-68.4c37.8 0 68.4 30.6 68.4 68.4z" fill="#21f4f9"/><circle cx="71.4" cy="72.3" fill="#edf723" r="68.8"/><path d="m46.6 55c1.7.2 2.5 1 2.5 2.1v.1c0 1-.6 1.9-1.5 2.3h-.9l-.4-.5c.1-.7.4-1.4 1-1.8l-.2-.2c-2.4.4-3.8.8-4 1.5 3.2 2 4.8 3.5 4.8 4.6 0 1.5-1.8 2.4-5.2 2.6-1.1-.2-2.1-.8-2.8-1.8v-.9l1-.9c.3 0 .4.2.4.7.4.5 1 .8 1.6.8v.2c1.6-.2 2.3-.5 2.3-.8l.1-.2-4.1-3.4-.2-1.3v-.2c-.1-1 1.9-1.9 5.6-2.9z"/><path d="m50.7 48c.8.2 1.2.5 1.1.7v.2c0 .8-.3 1.3-.8 1.4l-.9-.1-.6-.7v-.7c0-.2.4-.5 1.2-.8zm.2 8.7c.8 0 1.1 1.7 1 5-.1 1.1.2 2.1.8 3 .6 0 1.1-.7 1.7-2l.2-.2h.2l.7.8-.1.7c0 .9-.9 1.9-2.6 2.9l-.9-.1c-1.4-.7-2-2.6-1.9-5.4h-.2l.1-4.2z"/><path d="m56.5 55.6.5.1c.6 0 1 1.4 1.2 4.3 1.9-2.6 3-3.9 3.5-4.1l1.9.1c.7.2 1.2 2.1 1.4 5.4h.2c0-.5 1.4-2.1 4.2-4.8l.9.1.7.7-.3.9c0 2 .5 3.9 1.2 5.7h.9l1.2-1.1h.5l.6 1c-.7 1.5-1.5 2.2-2.5 2.2h-.1c-2.1-.1-3.3-2.2-3.7-6.4h-.2c-2.6 3.9-4.1 5.8-4.5 5.9-.8 0-1.3-.3-1.4-.8l.1-.7.2-.7c0-3.6-.3-5.4-.8-5.4h-.2c-1.8 1.8-2.9 4.1-3 6.7l-1.4.9-.9-.7.1-1.2c-.1-2.4-.4-4.8-.9-7.1v-.2z"/><path d="m77.5 55.5.7.1c.3 0 .5.5.5 1.4l1.2.1c1.6 0 2.5 1.2 2.7 3.3l-.1.7c-.1 2.7-2.1 4.7-6.1 6.1l-.1 2.4-.3 2.1.2.7-.3 2.4.2.2v.2l-.3.7.1 3.5-.7.5-.7-.1c-.3 0-.5-.4-.6-1.2l.2-.2-.2-1.2.9-10.5-.2-.9c1.2-6.9 2.2-10.3 2.9-10.3zm.6 3.3c-.7 2-1.2 4.1-1.3 6.3 2.4-.7 4-2.8 3.9-5.3-.5-.6-1.1-.9-1.9-1z"/><path d="m87.2 42.9.9.1c1.6 0 2.6 1.4 2.9 4.1v1.1c-.1 2.5-1.5 6.3-4.4 11.3 1 2.5 2.3 3.8 3.9 3.9l.5.1c1 0 2.3-.9 4.1-2.7h.4l.4.5v.9c-2.1 2-3.8 3.1-5.3 3.3-2.1-.1-3.8-1.4-5-3.9h-.2c-.3.9-.9 1.6-1.7 2.1h-.2c-.4 0-.6-.3-.7-.9l1.8-3.4c-.4-2.5-.5-5-.5-7.6.4-5.2 1.4-8.2 3.1-8.9zm-1.4 8.1.3 5.9c2.3-2.8 3.6-6.1 3.9-9.7v-.2c0-1.6-.6-2.4-1.8-2.4-1.1.4-1.9 2.5-2.4 6.4z"/><path d="m95 59.6c1.4-2.4 3.5-4.4 5.9-5.9l.7.1c.9 0 1.4.4 1.3 1-.1 1.9-2 5-5.9 9.1l.4.5 1.2.1c1.9-.3 3.6-1.1 5-2.4h.5l.5.5-.1.7c-1.8 1.9-4.4 3-7.1 3h-.3c-1.8-.5-2.7-1.4-2.7-2.8v-.1l.1-2.4c.3-.5.4-.9.5-1.4zm1.6 1.5c1.7-1.3 3.1-3 4.2-4.8v-.3c-2.7 2-4.1 3.7-4.2 5.1z"/><path d="m22.4 90.3v-18.9h11.7v3.1h-8.1v5h7.5v3.1h-7.5v7.6h-3.6z"/><path d="m50.9 84.7c0 3.1-1.8 5.8-7.1 5.8s-7.1-2.7-7.1-5.8v-7.8c0-3.1 1.8-5.8 7.1-5.8s7.1 2.7 7.1 5.8zm-10.7-.1c0 1.8.9 2.9 3.6 2.9s3.6-1.1 3.6-2.9v-7.4c0-1.8-.9-2.9-3.6-2.9s-3.6 1.1-3.6 2.9z"/><path d="m68.6 84.7c0 3.1-1.8 5.8-7.1 5.8s-7.1-2.7-7.1-5.8v-7.8c0-3.1 1.8-5.8 7.1-5.8s7.1 2.7 7.1 5.8zm-10.7-.1c0 1.8.9 2.9 3.6 2.9s3.6-1.1 3.6-2.9v-7.4c0-1.8-.9-2.9-3.6-2.9s-3.6 1.1-3.6 2.9z"/><path d="m79.4 71.4c4.6 0 6.2 2.4 6.2 5.1v8.7c0 2.7-1.6 5.1-6.2 5.1h-7v-18.9zm-3.4 15.7h3.1c2.4 0 3.1-1 3.1-2.8v-7c0-1.8-.6-2.8-3.1-2.8h-3.1z"/><path d="m93.2 90.3h-3.6v-18.9h3.6z"/><path d="m102.7 90.6c-2 0-4-.4-5.9-1.1l.6-2.8c1.7.6 3.5.9 5.3.9 2.6 0 3-.5 3-2.4 0-2.1-.1-2.3-3.5-3-4.5-1-5.2-1.9-5.2-5.9 0-3.4 1.6-5.1 6.3-5.1 1.8 0 3.7.2 5.5.6l-.4 3c-1.6-.4-3.3-.5-5-.6-2.4 0-2.8.5-2.8 2.1 0 2.1.1 2.2 3.3 3 5.1 1.2 5.3 2 5.3 5.8.2 3.6-.9 5.5-6.5 5.5z"/><path d="m116.7 74.6h-5.2v-3.1h14.1v3.1h-5.3v15.7h-3.6z"/></svg>